<svg id="Livello_1" data-name="Livello 1" xmlns="http://www.w3.org/2000/svg" viewBox="0 0 450 350"><defs><style>.cls-1{fill:none;stroke:#000;stroke-miterlimit:10;}</style></defs><title>AP-logo</title><path d="M425,125A100,100,0,0,1,325,225H225C75,225,25,325,25,325c0-125,100-150,200-150h99.18c27.41,0,50.35-21.72,50.81-49.13A50,50,0,0,0,325,75H275a50,50,0,0,1-50-50H325A100,100,0,0,1,425,125Z"/><polygon points="275 325 125 75 150 25 300 275 275 325"/><line class="cls-1" x1="150" y1="25" x2="62.5" y2="200"/><line class="cls-1" x1="275" y1="325" x2="312.5" y2="250"/></svg>